<svg width="34" height="36" viewBox="0 0 34 36" fill="none" xmlns="http://www.w3.org/2000/svg">
<path d="M12.0417 21H13.1608L13.5575 20.595C12.1692 18.885 11.3333 16.665 11.3333 14.25C11.3333 8.865 15.4558 4.5 20.5417 4.5C25.6275 4.5 29.75 8.865 29.75 14.25C29.75 19.635 25.6275 24 20.5417 24C18.2608 24 16.1642 23.115 14.5492 21.645L14.1667 22.065V23.25L7.08333 30.735L4.9725 28.5L12.0417 21ZM20.5417 21C24.0692 21 26.9167 17.985 26.9167 14.25C26.9167 10.515 24.0692 7.5 20.5417 7.5C17.0142 7.5 14.1667 10.515 14.1667 14.25C14.1667 17.985 17.0142 21 20.5417 21Z" fill="white"/>
</svg>
